<svg width="32" height="32" viewBox="0 0 32 32" fill="none" xmlns="http://www.w3.org/2000/svg">
<path d="M19.1452 6.19922C20.1007 6.19922 20.9064 6.84067 21.1551 7.71642C21.9549 10.0388 23.4052 13.3449 24.4821 14.8394C24.6728 14.3467 24.8108 13.7299 24.871 13.1876C24.8919 12.9995 25.0235 11.7774 25.2072 11.2313C25.4285 10.5731 25.8849 10.0069 26.571 9.78525C27.6876 9.42459 28.9008 10.0858 29.2808 11.2621C29.3158 11.3706 29.3425 11.4796 29.3613 11.5884C29.4918 12.1475 29.4013 12.6613 29.3476 13.0001C29.2643 13.5261 29.0757 14.7876 28.9882 15.6251C28.8789 16.672 28.8164 18.4298 29.1132 20.4063C29.4132 21.8188 29.332 23.3178 29.2539 23.8907C28.3933 30.2014 21.4063 30.672 19.4413 29.7412C18.1025 29.3061 16.6826 28.2709 14.7304 26.2735C12.4479 23.9382 10.363 21.3679 9.20227 19.63C8.94 19.2835 8.78442 18.8518 8.78442 18.3838C8.78442 17.2423 9.70981 16.3169 10.8513 16.3169C11.0699 16.3169 11.2806 16.3508 11.4784 16.4137C11.1016 15.6794 10.7976 15.0374 10.5607 14.3272C10.4882 14.1164 10.4488 13.8901 10.4488 13.6547C10.4488 12.5132 11.3742 11.5878 12.5157 11.5878C13.1488 11.5878 13.7154 11.8724 14.0945 12.3206C13.9749 12.0532 13.26 10.2882 13.1347 9.46564C13.1191 9.36334 13.1111 9.25859 13.1111 9.15195C13.1111 8.01044 14.0364 7.08505 15.1779 7.08505C16.011 7.08505 16.729 7.57794 17.0562 8.28802C17.0563 7.13438 17.9916 6.19922 19.1452 6.19922Z" fill="#E4AB94"/>
<path d="M19.1452 6.19922C20.1007 6.19922 20.9064 6.84067 21.1551 7.71642C21.9549 10.0388 23.4052 13.3449 24.4821 14.8394C24.6728 14.3467 24.8108 13.7299 24.871 13.1876C24.8919 12.9995 25.0235 11.7774 25.2072 11.2313C25.4285 10.5731 25.8849 10.0069 26.571 9.78525C27.6876 9.42459 28.9008 10.0858 29.2808 11.2621C29.3158 11.3706 29.3425 11.4796 29.3613 11.5884C29.4918 12.1475 29.4013 12.6613 29.3476 13.0001C29.2643 13.5261 29.0757 14.7876 28.9882 15.6251C28.8789 16.672 28.8164 18.4298 29.1132 20.4063C29.4132 21.8188 29.332 23.3178 29.2539 23.8907C28.3933 30.2014 21.4063 30.672 19.4413 29.7412C18.1025 29.3061 16.6826 28.2709 14.7304 26.2735C12.4479 23.9382 10.363 21.3679 9.20227 19.63C8.94 19.2835 8.78442 18.8518 8.78442 18.3838C8.78442 17.2423 9.70981 16.3169 10.8513 16.3169C11.0699 16.3169 11.2806 16.3508 11.4784 16.4137C11.1016 15.6794 10.7976 15.0374 10.5607 14.3272C10.4882 14.1164 10.4488 13.8901 10.4488 13.6547C10.4488 12.5132 11.3742 11.5878 12.5157 11.5878C13.1488 11.5878 13.7154 11.8724 14.0945 12.3206C13.9749 12.0532 13.26 10.2882 13.1347 9.46564C13.1191 9.36334 13.1111 9.25859 13.1111 9.15195C13.1111 8.01044 14.0364 7.08505 15.1779 7.08505C16.011 7.08505 16.729 7.57794 17.0562 8.28802C17.0563 7.13438 17.9916 6.19922 19.1452 6.19922Z" fill="url(#paint0_radial_20020_1098)"/>
<path d="M19.1452 6.19922C20.1007 6.19922 20.9064 6.84067 21.1551 7.71642C21.9549 10.0388 23.4052 13.3449 24.4821 14.8394C24.6728 14.3467 24.8108 13.7299 24.871 13.1876C24.8919 12.9995 25.0235 11.7774 25.2072 11.2313C25.4285 10.5731 25.8849 10.0069 26.571 9.78525C27.6876 9.42459 28.9008 10.0858 29.2808 11.2621C29.3158 11.3706 29.3425 11.4796 29.3613 11.5884C29.4918 12.1475 29.4013 12.6613 29.3476 13.0001C29.2643 13.5261 29.0757 14.7876 28.9882 15.6251C28.8789 16.672 28.8164 18.4298 29.1132 20.4063C29.4132 21.8188 29.332 23.3178 29.2539 23.8907C28.3933 30.2014 21.4063 30.672 19.4413 29.7412C18.1025 29.3061 16.6826 28.2709 14.7304 26.2735C12.4479 23.9382 10.363 21.3679 9.20227 19.63C8.94 19.2835 8.78442 18.8518 8.78442 18.3838C8.78442 17.2423 9.70981 16.3169 10.8513 16.3169C11.0699 16.3169 11.2806 16.3508 11.4784 16.4137C11.1016 15.6794 10.7976 15.0374 10.5607 14.3272C10.4882 14.1164 10.4488 13.8901 10.4488 13.6547C10.4488 12.5132 11.3742 11.5878 12.5157 11.5878C13.1488 11.5878 13.7154 11.8724 14.0945 12.3206C13.9749 12.0532 13.26 10.2882 13.1347 9.46564C13.1191 9.36334 13.1111 9.25859 13.1111 9.15195C13.1111 8.01044 14.0364 7.08505 15.1779 7.08505C16.011 7.08505 16.729 7.57794 17.0562 8.28802C17.0563 7.13438 17.9916 6.19922 19.1452 6.19922Z" fill="url(#paint1_linear_20020_1098)"/>
<path d="M19.1452 6.19922C20.1007 6.19922 20.9064 6.84067 21.1551 7.71642C21.9549 10.0388 23.4052 13.3449 24.4821 14.8394C24.6728 14.3467 24.8108 13.7299 24.871 13.1876C24.8919 12.9995 25.0235 11.7774 25.2072 11.2313C25.4285 10.5731 25.8849 10.0069 26.571 9.78525C27.6876 9.42459 28.9008 10.0858 29.2808 11.2621C29.3158 11.3706 29.3425 11.4796 29.3613 11.5884C29.4918 12.1475 29.4013 12.6613 29.3476 13.0001C29.2643 13.5261 29.0757 14.7876 28.9882 15.6251C28.8789 16.672 28.8164 18.4298 29.1132 20.4063C29.4132 21.8188 29.332 23.3178 29.2539 23.8907C28.3933 30.2014 21.4063 30.672 19.4413 29.7412C18.1025 29.3061 16.6826 28.2709 14.7304 26.2735C12.4479 23.9382 10.363 21.3679 9.20227 19.63C8.94 19.2835 8.78442 18.8518 8.78442 18.3838C8.78442 17.2423 9.70981 16.3169 10.8513 16.3169C11.0699 16.3169 11.2806 16.3508 11.4784 16.4137C11.1016 15.6794 10.7976 15.0374 10.5607 14.3272C10.4882 14.1164 10.4488 13.8901 10.4488 13.6547C10.4488 12.5132 11.3742 11.5878 12.5157 11.5878C13.1488 11.5878 13.7154 11.8724 14.0945 12.3206C13.9749 12.0532 13.26 10.2882 13.1347 9.46564C13.1191 9.36334 13.1111 9.25859 13.1111 9.15195C13.1111 8.01044 14.0364 7.08505 15.1779 7.08505C16.011 7.08505 16.729 7.57794 17.0562 8.28802C17.0563 7.13438 17.9916 6.19922 19.1452 6.19922Z" fill="url(#paint2_radial_20020_1098)"/>
<path d="M19.1452 6.19922C20.1007 6.19922 20.9064 6.84067 21.1551 7.71642C21.9549 10.0388 23.4052 13.3449 24.4821 14.8394C24.6728 14.3467 24.8108 13.7299 24.871 13.1876C24.8919 12.9995 25.0235 11.7774 25.2072 11.2313C25.4285 10.5731 25.8849 10.0069 26.571 9.78525C27.6876 9.42459 28.9008 10.0858 29.2808 11.2621C29.3158 11.3706 29.3425 11.4796 29.3613 11.5884C29.4918 12.1475 29.4013 12.6613 29.3476 13.0001C29.2643 13.5261 29.0757 14.7876 28.9882 15.6251C28.8789 16.672 28.8164 18.4298 29.1132 20.4063C29.4132 21.8188 29.332 23.3178 29.2539 23.8907C28.3933 30.2014 21.4063 30.672 19.4413 29.7412C18.1025 29.3061 16.6826 28.2709 14.7304 26.2735C12.4479 23.9382 10.363 21.3679 9.20227 19.63C8.94 19.2835 8.78442 18.8518 8.78442 18.3838C8.78442 17.2423 9.70981 16.3169 10.8513 16.3169C11.0699 16.3169 11.2806 16.3508 11.4784 16.4137C11.1016 15.6794 10.7976 15.0374 10.5607 14.3272C10.4882 14.1164 10.4488 13.8901 10.4488 13.6547C10.4488 12.5132 11.3742 11.5878 12.5157 11.5878C13.1488 11.5878 13.7154 11.8724 14.0945 12.3206C13.9749 12.0532 13.26 10.2882 13.1347 9.46564C13.1191 9.36334 13.1111 9.25859 13.1111 9.15195C13.1111 8.01044 14.0364 7.08505 15.1779 7.08505C16.011 7.08505 16.729 7.57794 17.0562 8.28802C17.0563 7.13438 17.9916 6.19922 19.1452 6.19922Z" fill="url(#paint3_radial_20020_1098)"/>
<path d="M19.1452 6.19922C20.1007 6.19922 20.9064 6.84067 21.1551 7.71642C21.9549 10.0388 23.4052 13.3449 24.4821 14.8394C24.6728 14.3467 24.8108 13.7299 24.871 13.1876C24.8919 12.9995 25.0235 11.7774 25.2072 11.2313C25.4285 10.5731 25.8849 10.0069 26.571 9.78525C27.6876 9.42459 28.9008 10.0858 29.2808 11.2621C29.3158 11.3706 29.3425 11.4796 29.3613 11.5884C29.4918 12.1475 29.4013 12.6613 29.3476 13.0001C29.2643 13.5261 29.0757 14.7876 28.9882 15.6251C28.8789 16.672 28.8164 18.4298 29.1132 20.4063C29.4132 21.8188 29.332 23.3178 29.2539 23.8907C28.3933 30.2014 21.4063 30.672 19.4413 29.7412C18.1025 29.3061 16.6826 28.2709 14.7304 26.2735C12.4479 23.9382 10.363 21.3679 9.20227 19.63C8.94 19.2835 8.78442 18.8518 8.78442 18.3838C8.78442 17.2423 9.70981 16.3169 10.8513 16.3169C11.0699 16.3169 11.2806 16.3508 11.4784 16.4137C11.1016 15.6794 10.7976 15.0374 10.5607 14.3272C10.4882 14.1164 10.4488 13.8901 10.4488 13.6547C10.4488 12.5132 11.3742 11.5878 12.5157 11.5878C13.1488 11.5878 13.7154 11.8724 14.0945 12.3206C13.9749 12.0532 13.26 10.2882 13.1347 9.46564C13.1191 9.36334 13.1111 9.25859 13.1111 9.15195C13.1111 8.01044 14.0364 7.08505 15.1779 7.08505C16.011 7.08505 16.729 7.57794 17.0562 8.28802C17.0563 7.13438 17.9916 6.19922 19.1452 6.19922Z" fill="url(#paint4_radial_20020_1098)"/>
<path d="M19.1452 6.19922C20.1007 6.19922 20.9064 6.84067 21.1551 7.71642C21.9549 10.0388 23.4052 13.3449 24.4821 14.8394C24.6728 14.3467 24.8108 13.7299 24.871 13.1876C24.8919 12.9995 25.0235 11.7774 25.2072 11.2313C25.4285 10.5731 25.8849 10.0069 26.571 9.78525C27.6876 9.42459 28.9008 10.0858 29.2808 11.2621C29.3158 11.3706 29.3425 11.4796 29.3613 11.5884C29.4918 12.1475 29.4013 12.6613 29.3476 13.0001C29.2643 13.5261 29.0757 14.7876 28.9882 15.6251C28.8789 16.672 28.8164 18.4298 29.1132 20.4063C29.4132 21.8188 29.332 23.3178 29.2539 23.8907C28.3933 30.2014 21.4063 30.672 19.4413 29.7412C18.1025 29.3061 16.6826 28.2709 14.7304 26.2735C12.4479 23.9382 10.363 21.3679 9.20227 19.63C8.94 19.2835 8.78442 18.8518 8.78442 18.3838C8.78442 17.2423 9.70981 16.3169 10.8513 16.3169C11.0699 16.3169 11.2806 16.3508 11.4784 16.4137C11.1016 15.6794 10.7976 15.0374 10.5607 14.3272C10.4882 14.1164 10.4488 13.8901 10.4488 13.6547C10.4488 12.5132 11.3742 11.5878 12.5157 11.5878C13.1488 11.5878 13.7154 11.8724 14.0945 12.3206C13.9749 12.0532 13.26 10.2882 13.1347 9.46564C13.1191 9.36334 13.1111 9.25859 13.1111 9.15195C13.1111 8.01044 14.0364 7.08505 15.1779 7.08505C16.011 7.08505 16.729 7.57794 17.0562 8.28802C17.0563 7.13438 17.9916 6.19922 19.1452 6.19922Z" fill="url(#paint5_radial_20020_1098)"/>
<path d="M19.1452 6.19922C20.1007 6.19922 20.9064 6.84067 21.1551 7.71642C21.9549 10.0388 23.4052 13.3449 24.4821 14.8394C24.6728 14.3467 24.8108 13.7299 24.871 13.1876C24.8919 12.9995 25.0235 11.7774 25.2072 11.2313C25.4285 10.5731 25.8849 10.0069 26.571 9.78525C27.6876 9.42459 28.9008 10.0858 29.2808 11.2621C29.3158 11.3706 29.3425 11.4796 29.3613 11.5884C29.4918 12.1475 29.4013 12.6613 29.3476 13.0001C29.2643 13.5261 29.0757 14.7876 28.9882 15.6251C28.8789 16.672 28.8164 18.4298 29.1132 20.4063C29.4132 21.8188 29.332 23.3178 29.2539 23.8907C28.3933 30.2014 21.4063 30.672 19.4413 29.7412C18.1025 29.3061 16.6826 28.2709 14.7304 26.2735C12.4479 23.9382 10.363 21.3679 9.20227 19.63C8.94 19.2835 8.78442 18.8518 8.78442 18.3838C8.78442 17.2423 9.70981 16.3169 10.8513 16.3169C11.0699 16.3169 11.2806 16.3508 11.4784 16.4137C11.1016 15.6794 10.7976 15.0374 10.5607 14.3272C10.4882 14.1164 10.4488 13.8901 10.4488 13.6547C10.4488 12.5132 11.3742 11.5878 12.5157 11.5878C13.1488 11.5878 13.7154 11.8724 14.0945 12.3206C13.9749 12.0532 13.26 10.2882 13.1347 9.46564C13.1191 9.36334 13.1111 9.25859 13.1111 9.15195C13.1111 8.01044 14.0364 7.08505 15.1779 7.08505C16.011 7.08505 16.729 7.57794 17.0562 8.28802C17.0563 7.13438 17.9916 6.19922 19.1452 6.19922Z" fill="url(#paint6_radial_20020_1098)"/>
<path d="M19.1452 6.19922C20.1007 6.19922 20.9064 6.84067 21.1551 7.71642C21.9549 10.0388 23.4052 13.3449 24.4821 14.8394C24.6728 14.3467 24.8108 13.7299 24.871 13.1876C24.8919 12.9995 25.0235 11.7774 25.2072 11.2313C25.4285 10.5731 25.8849 10.0069 26.571 9.78525C27.6876 9.42459 28.9008 10.0858 29.2808 11.2621C29.3158 11.3706 29.3425 11.4796 29.3613 11.5884C29.4918 12.1475 29.4013 12.6613 29.3476 13.0001C29.2643 13.5261 29.0757 14.7876 28.9882 15.6251C28.8789 16.672 28.8164 18.4298 29.1132 20.4063C29.4132 21.8188 29.332 23.3178 29.2539 23.8907C28.3933 30.2014 21.4063 30.672 19.4413 29.7412C18.1025 29.3061 16.6826 28.2709 14.7304 26.2735C12.4479 23.9382 10.363 21.3679 9.20227 19.63C8.94 19.2835 8.78442 18.8518 8.78442 18.3838C8.78442 17.2423 9.70981 16.3169 10.8513 16.3169C11.0699 16.3169 11.2806 16.3508 11.4784 16.4137C11.1016 15.6794 10.7976 15.0374 10.5607 14.3272C10.4882 14.1164 10.4488 13.8901 10.4488 13.6547C10.4488 12.5132 11.3742 11.5878 12.5157 11.5878C13.1488 11.5878 13.7154 11.8724 14.0945 12.3206C13.9749 12.0532 13.26 10.2882 13.1347 9.46564C13.1191 9.36334 13.1111 9.25859 13.1111 9.15195C13.1111 8.01044 14.0364 7.08505 15.1779 7.08505C16.011 7.08505 16.729 7.57794 17.0562 8.28802C17.0563 7.13438 17.9916 6.19922 19.1452 6.19922Z" fill="url(#paint7_radial_20020_1098)"/>
<path d="M19.1452 6.19922C20.1007 6.19922 20.9064 6.84067 21.1551 7.71642C21.9549 10.0388 23.4052 13.3449 24.4821 14.8394C24.6728 14.3467 24.8108 13.7299 24.871 13.1876C24.8919 12.9995 25.0235 11.7774 25.2072 11.2313C25.4285 10.5731 25.8849 10.0069 26.571 9.78525C27.6876 9.42459 28.9008 10.0858 29.2808 11.2621C29.3158 11.3706 29.3425 11.4796 29.3613 11.5884C29.4918 12.1475 29.4013 12.6613 29.3476 13.0001C29.2643 13.5261 29.0757 14.7876 28.9882 15.6251C28.8789 16.672 28.8164 18.4298 29.1132 20.4063C29.4132 21.8188 29.332 23.3178 29.2539 23.8907C28.3933 30.2014 21.4063 30.672 19.4413 29.7412C18.1025 29.3061 16.6826 28.2709 14.7304 26.2735C12.4479 23.9382 10.363 21.3679 9.20227 19.63C8.94 19.2835 8.78442 18.8518 8.78442 18.3838C8.78442 17.2423 9.70981 16.3169 10.8513 16.3169C11.0699 16.3169 11.2806 16.3508 11.4784 16.4137C11.1016 15.6794 10.7976 15.0374 10.5607 14.3272C10.4882 14.1164 10.4488 13.8901 10.4488 13.6547C10.4488 12.5132 11.3742 11.5878 12.5157 11.5878C13.1488 11.5878 13.7154 11.8724 14.0945 12.3206C13.9749 12.0532 13.26 10.2882 13.1347 9.46564C13.1191 9.36334 13.1111 9.25859 13.1111 9.15195C13.1111 8.01044 14.0364 7.08505 15.1779 7.08505C16.011 7.08505 16.729 7.57794 17.0562 8.28802C17.0563 7.13438 17.9916 6.19922 19.1452 6.19922Z" fill="url(#paint8_radial_20020_1098)"/>
<path d="M19.1452 6.19922C20.1007 6.19922 20.9064 6.84067 21.1551 7.71642C21.9549 10.0388 23.4052 13.3449 24.4821 14.8394C24.6728 14.3467 24.8108 13.7299 24.871 13.1876C24.8919 12.9995 25.0235 11.7774 25.2072 11.2313C25.4285 10.5731 25.8849 10.0069 26.571 9.78525C27.6876 9.42459 28.9008 10.0858 29.2808 11.2621C29.3158 11.3706 29.3425 11.4796 29.3613 11.5884C29.4918 12.1475 29.4013 12.6613 29.3476 13.0001C29.2643 13.5261 29.0757 14.7876 28.9882 15.6251C28.8789 16.672 28.8164 18.4298 29.1132 20.4063C29.4132 21.8188 29.332 23.3178 29.2539 23.8907C28.3933 30.2014 21.4063 30.672 19.4413 29.7412C18.1025 29.3061 16.6826 28.2709 14.7304 26.2735C12.4479 23.9382 10.363 21.3679 9.20227 19.63C8.94 19.2835 8.78442 18.8518 8.78442 18.3838C8.78442 17.2423 9.70981 16.3169 10.8513 16.3169C11.0699 16.3169 11.2806 16.3508 11.4784 16.4137C11.1016 15.6794 10.7976 15.0374 10.5607 14.3272C10.4882 14.1164 10.4488 13.8901 10.4488 13.6547C10.4488 12.5132 11.3742 11.5878 12.5157 11.5878C13.1488 11.5878 13.7154 11.8724 14.0945 12.3206C13.9749 12.0532 13.26 10.2882 13.1347 9.46564C13.1191 9.36334 13.1111 9.25859 13.1111 9.15195C13.1111 8.01044 14.0364 7.08505 15.1779 7.08505C16.011 7.08505 16.729 7.57794 17.0562 8.28802C17.0563 7.13438 17.9916 6.19922 19.1452 6.19922Z" fill="url(#paint9_radial_20020_1098)"/>
<path d="M19.1452 6.19922C20.1007 6.19922 20.9064 6.84067 21.1551 7.71642C21.9549 10.0388 23.4052 13.3449 24.4821 14.8394C24.6728 14.3467 24.8108 13.7299 24.871 13.1876C24.8919 12.9995 25.0235 11.7774 25.2072 11.2313C25.4285 10.5731 25.8849 10.0069 26.571 9.78525C27.6876 9.42459 28.9008 10.0858 29.2808 11.2621C29.3158 11.3706 29.3425 11.4796 29.3613 11.5884C29.4918 12.1475 29.4013 12.6613 29.3476 13.0001C29.2643 13.5261 29.0757 14.7876 28.9882 15.6251C28.8789 16.672 28.8164 18.4298 29.1132 20.4063C29.4132 21.8188 29.332 23.3178 29.2539 23.8907C28.3933 30.2014 21.4063 30.672 19.4413 29.7412C18.1025 29.3061 16.6826 28.2709 14.7304 26.2735C12.4479 23.9382 10.363 21.3679 9.20227 19.63C8.94 19.2835 8.78442 18.8518 8.78442 18.3838C8.78442 17.2423 9.70981 16.3169 10.8513 16.3169C11.0699 16.3169 11.2806 16.3508 11.4784 16.4137C11.1016 15.6794 10.7976 15.0374 10.5607 14.3272C10.4882 14.1164 10.4488 13.8901 10.4488 13.6547C10.4488 12.5132 11.3742 11.5878 12.5157 11.5878C13.1488 11.5878 13.7154 11.8724 14.0945 12.3206C13.9749 12.0532 13.26 10.2882 13.1347 9.46564C13.1191 9.36334 13.1111 9.25859 13.1111 9.15195C13.1111 8.01044 14.0364 7.08505 15.1779 7.08505C16.011 7.08505 16.729 7.57794 17.0562 8.28802C17.0563 7.13438 17.9916 6.19922 19.1452 6.19922Z" fill="url(#paint10_radial_20020_1098)"/>
<path d="M19.1452 6.19922C20.1007 6.19922 20.9064 6.84067 21.1551 7.71642C21.9549 10.0388 23.4052 13.3449 24.4821 14.8394C24.6728 14.3467 24.8108 13.7299 24.871 13.1876C24.8919 12.9995 25.0235 11.7774 25.2072 11.2313C25.4285 10.5731 25.8849 10.0069 26.571 9.78525C27.6876 9.42459 28.9008 10.0858 29.2808 11.2621C29.3158 11.3706 29.3425 11.4796 29.3613 11.5884C29.4918 12.1475 29.4013 12.6613 29.3476 13.0001C29.2643 13.5261 29.0757 14.7876 28.9882 15.6251C28.8789 16.672 28.8164 18.4298 29.1132 20.4063C29.4132 21.8188 29.332 23.3178 29.2539 23.8907C28.3933 30.2014 21.4063 30.672 19.4413 29.7412C18.1025 29.3061 16.6826 28.2709 14.7304 26.2735C12.4479 23.9382 10.363 21.3679 9.20227 19.63C8.94 19.2835 8.78442 18.8518 8.78442 18.3838C8.78442 17.2423 9.70981 16.3169 10.8513 16.3169C11.0699 16.3169 11.2806 16.3508 11.4784 16.4137C11.1016 15.6794 10.7976 15.0374 10.5607 14.3272C10.4882 14.1164 10.4488 13.8901 10.4488 13.6547C10.4488 12.5132 11.3742 11.5878 12.5157 11.5878C13.1488 11.5878 13.7154 11.8724 14.0945 12.3206C13.9749 12.0532 13.26 10.2882 13.1347 9.46564C13.1191 9.36334 13.1111 9.25859 13.1111 9.15195C13.1111 8.01044 14.0364 7.08505 15.1779 7.08505C16.011 7.08505 16.729 7.57794 17.0562 8.28802C17.0563 7.13438 17.9916 6.19922 19.1452 6.19922Z" fill="url(#paint11_radial_20020_1098)"/>
<path d="M17.0563 8.26289C17.0849 8.51084 17.158 8.829 17.3075 9.21883C17.3726 9.38865 17.452 9.60627 17.5452 9.86198C17.9639 11.0889 18.7512 13.1699 19.7949 15.0719C20.1882 15.7885 20.9057 16.2917 21.7223 16.2535C22.7981 16.2033 24.0342 15.8483 24.5078 14.7891L24.505 14.779C24.4975 14.7993 24.4898 14.8195 24.4821 14.8394C23.4051 13.3449 21.9549 10.0388 21.155 7.71642C20.9063 6.84067 20.1007 6.19922 19.1452 6.19922C17.9999 6.19922 17.0699 7.12083 17.0563 8.26289Z" fill="url(#paint12_radial_20020_1098)"/>
<path d="M17.0563 8.26289C17.0849 8.51084 17.158 8.829 17.3075 9.21883C17.3726 9.38865 17.452 9.60627 17.5452 9.86198C17.9639 11.0889 18.7512 13.1699 19.7949 15.0719C20.1882 15.7885 20.9057 16.2917 21.7223 16.2535C22.7981 16.2033 24.0342 15.8483 24.5078 14.7891L24.505 14.779C24.4975 14.7993 24.4898 14.8195 24.4821 14.8394C23.4051 13.3449 21.9549 10.0388 21.155 7.71642C20.9063 6.84067 20.1007 6.19922 19.1452 6.19922C17.9999 6.19922 17.0699 7.12083 17.0563 8.26289Z" fill="url(#paint13_radial_20020_1098)"/>
<path d="M17.0563 8.26289C17.0849 8.51084 17.158 8.829 17.3075 9.21883C17.3726 9.38865 17.452 9.60627 17.5452 9.86198C17.9639 11.0889 18.7512 13.1699 19.7949 15.0719C20.1882 15.7885 20.9057 16.2917 21.7223 16.2535C22.7981 16.2033 24.0342 15.8483 24.5078 14.7891L24.505 14.779C24.4975 14.7993 24.4898 14.8195 24.4821 14.8394C23.4051 13.3449 21.9549 10.0388 21.155 7.71642C20.9063 6.84067 20.1007 6.19922 19.1452 6.19922C17.9999 6.19922 17.0699 7.12083 17.0563 8.26289Z" fill="url(#paint14_radial_20020_1098)"/>
<path d="M17.0563 8.26289C17.0849 8.51084 17.158 8.829 17.3075 9.21883C17.3726 9.38865 17.452 9.60627 17.5452 9.86198C17.9639 11.0889 18.7512 13.1699 19.7949 15.0719C20.1882 15.7885 20.9057 16.2917 21.7223 16.2535C22.7981 16.2033 24.0342 15.8483 24.5078 14.7891L24.505 14.779C24.4975 14.7993 24.4898 14.8195 24.4821 14.8394C23.4051 13.3449 21.9549 10.0388 21.155 7.71642C20.9063 6.84067 20.1007 6.19922 19.1452 6.19922C17.9999 6.19922 17.0699 7.12083 17.0563 8.26289Z" fill="url(#paint15_radial_20020_1098)"/>
<path d="M17.0563 8.26289C17.0849 8.51084 17.158 8.829 17.3075 9.21883C17.3726 9.38865 17.452 9.60627 17.5452 9.86198C17.9639 11.0889 18.7512 13.1699 19.7949 15.0719C20.1882 15.7885 20.9057 16.2917 21.7223 16.2535C22.7981 16.2033 24.0342 15.8483 24.5078 14.7891L24.505 14.779C24.4975 14.7993 24.4898 14.8195 24.4821 14.8394C23.4051 13.3449 21.9549 10.0388 21.155 7.71642C20.9063 6.84067 20.1007 6.19922 19.1452 6.19922C17.9999 6.19922 17.0699 7.12083 17.0563 8.26289Z" fill="url(#paint16_radial_20020_1098)"/>
<path d="M17.0563 8.26289C17.0849 8.51084 17.158 8.829 17.3075 9.21883C17.3726 9.38865 17.452 9.60627 17.5452 9.86198C17.9639 11.0889 18.7512 13.1699 19.7949 15.0719C20.1882 15.7885 20.9057 16.2917 21.7223 16.2535C22.7981 16.2033 24.0342 15.8483 24.5078 14.7891L24.505 14.779C24.4975 14.7993 24.4898 14.8195 24.4821 14.8394C23.4051 13.3449 21.9549 10.0388 21.155 7.71642C20.9063 6.84067 20.1007 6.19922 19.1452 6.19922C17.9999 6.19922 17.0699 7.12083 17.0563 8.26289Z" fill="url(#paint17_radial_20020_1098)"/>
<path d="M17.0563 8.26289C17.0849 8.51084 17.158 8.829 17.3075 9.21883C17.3726 9.38865 17.452 9.60627 17.5452 9.86198C17.9639 11.0889 18.7512 13.1699 19.7949 15.0719C20.1882 15.7885 20.9057 16.2917 21.7223 16.2535C22.7981 16.2033 24.0342 15.8483 24.5078 14.7891L24.505 14.779C24.4975 14.7993 24.4898 14.8195 24.4821 14.8394C23.4051 13.3449 21.9549 10.0388 21.155 7.71642C20.9063 6.84067 20.1007 6.19922 19.1452 6.19922C17.9999 6.19922 17.0699 7.12083 17.0563 8.26289Z" fill="url(#paint18_linear_20020_1098)"/>
<path d="M17.0563 8.26289C17.0849 8.51084 17.158 8.829 17.3075 9.21883C17.3726 9.38865 17.452 9.60627 17.5452 9.86198C17.9639 11.0889 18.7512 13.1699 19.7949 15.0719C20.1882 15.7885 20.9057 16.2917 21.7223 16.2535C22.7981 16.2033 24.0342 15.8483 24.5078 14.7891L24.505 14.779C24.4975 14.7993 24.4898 14.8195 24.4821 14.8394C23.4051 13.3449 21.9549 10.0388 21.155 7.71642C20.9063 6.84067 20.1007 6.19922 19.1452 6.19922C17.9999 6.19922 17.0699 7.12083 17.0563 8.26289Z" fill="url(#paint19_linear_20020_1098)"/>
<path d="M17.0563 8.26289C17.0849 8.51084 17.158 8.829 17.3075 9.21883C17.3726 9.38865 17.452 9.60627 17.5452 9.86198C17.9639 11.0889 18.7512 13.1699 19.7949 15.0719C20.1882 15.7885 20.9057 16.2917 21.7223 16.2535C22.7981 16.2033 24.0342 15.8483 24.5078 14.7891L24.505 14.779C24.4975 14.7993 24.4898 14.8195 24.4821 14.8394C23.4051 13.3449 21.9549 10.0388 21.155 7.71642C20.9063 6.84067 20.1007 6.19922 19.1452 6.19922C17.9999 6.19922 17.0699 7.12083 17.0563 8.26289Z" fill="url(#paint20_linear_20020_1098)"/>
<path d="M17.0563 8.26289C17.0849 8.51084 17.158 8.829 17.3075 9.21883C17.3726 9.38865 17.452 9.60627 17.5452 9.86198C17.9639 11.0889 18.7512 13.1699 19.7949 15.0719C20.1882 15.7885 20.9057 16.2917 21.7223 16.2535C22.7981 16.2033 24.0342 15.8483 24.5078 14.7891L24.505 14.779C24.4975 14.7993 24.4898 14.8195 24.4821 14.8394C23.4051 13.3449 21.9549 10.0388 21.155 7.71642C20.9063 6.84067 20.1007 6.19922 19.1452 6.19922C17.9999 6.19922 17.0699 7.12083 17.0563 8.26289Z" fill="url(#paint21_radial_20020_1098)"/>
<path d="M10.5645 14.3271C10.492 14.1163 10.4526 13.89 10.4526 13.6545C10.4526 12.513 11.378 11.5876 12.5195 11.5876C13.1417 11.5876 13.6996 11.8625 14.0785 12.2975C15.1132 14.3828 16.3875 16.8156 17.3554 18.2343C16.125 19.9062 15.8294 20.75 15.5742 21.4687C14.7929 20.3802 13.1585 18.1641 12.5742 17.4218C12.261 17.024 11.8789 16.5156 11.4844 16.414C11.0703 15.6523 10.7696 14.9421 10.5645 14.3271Z" fill="url(#paint22_radial_20020_1098)"/>
<path d="M10.5645 14.3271C10.492 14.1163 10.4526 13.89 10.4526 13.6545C10.4526 12.513 11.378 11.5876 12.5195 11.5876C13.1417 11.5876 13.6996 11.8625 14.0785 12.2975C15.1132 14.3828 16.3875 16.8156 17.3554 18.2343C16.125 19.9062 15.8294 20.75 15.5742 21.4687C14.7929 20.3802 13.1585 18.1641 12.5742 17.4218C12.261 17.024 11.8789 16.5156 11.4844 16.414C11.0703 15.6523 10.7696 14.9421 10.5645 14.3271Z" fill="url(#paint23_radial_20020_1098)"/>
<path d="M10.5645 14.3271C10.492 14.1163 10.4526 13.89 10.4526 13.6545C10.4526 12.513 11.378 11.5876 12.5195 11.5876C13.1417 11.5876 13.6996 11.8625 14.0785 12.2975C15.1132 14.3828 16.3875 16.8156 17.3554 18.2343C16.125 19.9062 15.8294 20.75 15.5742 21.4687C14.7929 20.3802 13.1585 18.1641 12.5742 17.4218C12.261 17.024 11.8789 16.5156 11.4844 16.414C11.0703 15.6523 10.7696 14.9421 10.5645 14.3271Z" fill="url(#paint24_radial_20020_1098)"/>
<path d="M10.5645 14.3271C10.492 14.1163 10.4526 13.89 10.4526 13.6545C10.4526 12.513 11.378 11.5876 12.5195 11.5876C13.1417 11.5876 13.6996 11.8625 14.0785 12.2975C15.1132 14.3828 16.3875 16.8156 17.3554 18.2343C16.125 19.9062 15.8294 20.75 15.5742 21.4687C14.7929 20.3802 13.1585 18.1641 12.5742 17.4218C12.261 17.024 11.8789 16.5156 11.4844 16.414C11.0703 15.6523 10.7696 14.9421 10.5645 14.3271Z" fill="url(#paint25_linear_20020_1098)"/>
<path d="M10.5645 14.3271C10.492 14.1163 10.4526 13.89 10.4526 13.6545C10.4526 12.513 11.378 11.5876 12.5195 11.5876C13.1417 11.5876 13.6996 11.8625 14.0785 12.2975C15.1132 14.3828 16.3875 16.8156 17.3554 18.2343C16.125 19.9062 15.8294 20.75 15.5742 21.4687C14.7929 20.3802 13.1585 18.1641 12.5742 17.4218C12.261 17.024 11.8789 16.5156 11.4844 16.414C11.0703 15.6523 10.7696 14.9421 10.5645 14.3271Z" fill="url(#paint26_radial_20020_1098)"/>
<path d="M10.5645 14.3271C10.492 14.1163 10.4526 13.89 10.4526 13.6545C10.4526 12.513 11.378 11.5876 12.5195 11.5876C13.1417 11.5876 13.6996 11.8625 14.0785 12.2975C15.1132 14.3828 16.3875 16.8156 17.3554 18.2343C16.125 19.9062 15.8294 20.75 15.5742 21.4687C14.7929 20.3802 13.1585 18.1641 12.5742 17.4218C12.261 17.024 11.8789 16.5156 11.4844 16.414C11.0703 15.6523 10.7696 14.9421 10.5645 14.3271Z" fill="url(#paint27_radial_20020_1098)"/>
<path d="M10.5645 14.3271C10.492 14.1163 10.4526 13.89 10.4526 13.6545C10.4526 12.513 11.378 11.5876 12.5195 11.5876C13.1417 11.5876 13.6996 11.8625 14.0785 12.2975C15.1132 14.3828 16.3875 16.8156 17.3554 18.2343C16.125 19.9062 15.8294 20.75 15.5742 21.4687C14.7929 20.3802 13.1585 18.1641 12.5742 17.4218C12.261 17.024 11.8789 16.5156 11.4844 16.414C11.0703 15.6523 10.7696 14.9421 10.5645 14.3271Z" fill="url(#paint28_linear_20020_1098)"/>
<path d="M10.5645 14.3271C10.492 14.1163 10.4526 13.89 10.4526 13.6545C10.4526 12.513 11.378 11.5876 12.5195 11.5876C13.1417 11.5876 13.6996 11.8625 14.0785 12.2975C15.1132 14.3828 16.3875 16.8156 17.3554 18.2343C16.125 19.9062 15.8294 20.75 15.5742 21.4687C14.7929 20.3802 13.1585 18.1641 12.5742 17.4218C12.261 17.024 11.8789 16.5156 11.4844 16.414C11.0703 15.6523 10.7696 14.9421 10.5645 14.3271Z" fill="url(#paint29_radial_20020_1098)"/>
<path d="M13.9937 12.0811C14.8118 13.8382 15.8187 16.0803 17.1426 17.9031C17.7519 17.8145 19.2852 17.1053 20.207 15.621C19.3008 14.3436 17.8996 11.3309 17.0434 8.26091C16.7106 7.56537 16.0003 7.08496 15.1779 7.08496C14.0363 7.08496 13.111 8.01035 13.111 9.15186C13.111 9.2585 13.119 9.36325 13.1346 9.46555C13.2395 10.1541 13.7575 11.5029 13.9937 12.0811Z" fill="url(#paint30_radial_20020_1098)"/>
<path d="M13.9937 12.0811C14.8118 13.8382 15.8187 16.0803 17.1426 17.9031C17.7519 17.8145 19.2852 17.1053 20.207 15.621C19.3008 14.3436 17.8996 11.3309 17.0434 8.26091C16.7106 7.56537 16.0003 7.08496 15.1779 7.08496C14.0363 7.08496 13.111 8.01035 13.111 9.15186C13.111 9.2585 13.119 9.36325 13.1346 9.46555C13.2395 10.1541 13.7575 11.5029 13.9937 12.0811Z" fill="url(#paint31_radial_20020_1098)"/>
<path d="M13.9937 12.0811C14.8118 13.8382 15.8187 16.0803 17.1426 17.9031C17.7519 17.8145 19.2852 17.1053 20.207 15.621C19.3008 14.3436 17.8996 11.3309 17.0434 8.26091C16.7106 7.56537 16.0003 7.08496 15.1779 7.08496C14.0363 7.08496 13.111 8.01035 13.111 9.15186C13.111 9.2585 13.119 9.36325 13.1346 9.46555C13.2395 10.1541 13.7575 11.5029 13.9937 12.0811Z" fill="url(#paint32_radial_20020_1098)"/>
<path d="M13.9937 12.0811C14.8118 13.8382 15.8187 16.0803 17.1426 17.9031C17.7519 17.8145 19.2852 17.1053 20.207 15.621C19.3008 14.3436 17.8996 11.3309 17.0434 8.26091C16.7106 7.56537 16.0003 7.08496 15.1779 7.08496C14.0363 7.08496 13.111 8.01035 13.111 9.15186C13.111 9.2585 13.119 9.36325 13.1346 9.46555C13.2395 10.1541 13.7575 11.5029 13.9937 12.0811Z" fill="url(#paint33_linear_20020_1098)"/>
<path d="M13.9937 12.0811C14.8118 13.8382 15.8187 16.0803 17.1426 17.9031C17.7519 17.8145 19.2852 17.1053 20.207 15.621C19.3008 14.3436 17.8996 11.3309 17.0434 8.26091C16.7106 7.56537 16.0003 7.08496 15.1779 7.08496C14.0363 7.08496 13.111 8.01035 13.111 9.15186C13.111 9.2585 13.119 9.36325 13.1346 9.46555C13.2395 10.1541 13.7575 11.5029 13.9937 12.0811Z" fill="url(#paint34_radial_20020_1098)"/>
<path d="M13.9937 12.0811C14.8118 13.8382 15.8187 16.0803 17.1426 17.9031C17.7519 17.8145 19.2852 17.1053 20.207 15.621C19.3008 14.3436 17.8996 11.3309 17.0434 8.26091C16.7106 7.56537 16.0003 7.08496 15.1779 7.08496C14.0363 7.08496 13.111 8.01035 13.111 9.15186C13.111 9.2585 13.119 9.36325 13.1346 9.46555C13.2395 10.1541 13.7575 11.5029 13.9937 12.0811Z" fill="url(#paint35_radial_20020_1098)"/>
<path d="M13.9937 12.0811C14.8118 13.8382 15.8187 16.0803 17.1426 17.9031C17.7519 17.8145 19.2852 17.1053 20.207 15.621C19.3008 14.3436 17.8996 11.3309 17.0434 8.26091C16.7106 7.56537 16.0003 7.08496 15.1779 7.08496C14.0363 7.08496 13.111 8.01035 13.111 9.15186C13.111 9.2585 13.119 9.36325 13.1346 9.46555C13.2395 10.1541 13.7575 11.5029 13.9937 12.0811Z" fill="url(#paint36_linear_20020_1098)"/>
<path d="M10.8513 16.3168C9.70981 16.3168 8.78442 17.2422 8.78442 18.3837C8.78442 18.8517 8.94 19.2834 9.20227 19.6299C10.2062 21.1329 11.9013 23.2587 13.8178 25.3165C16.196 24.2025 15.9844 21.9375 15.5789 21.4555C15.571 21.4777 13.5539 18.6663 12.5742 17.4219C12.5582 17.4015 12.5419 17.3808 12.5255 17.3599C12.0736 16.7841 11.793 16.3168 10.8513 16.3168Z" fill="url(#paint37_radial_20020_1098)"/>
<path d="M10.8513 16.3168C9.70981 16.3168 8.78442 17.2422 8.78442 18.3837C8.78442 18.8517 8.94 19.2834 9.20227 19.6299C10.2062 21.1329 11.9013 23.2587 13.8178 25.3165C16.196 24.2025 15.9844 21.9375 15.5789 21.4555C15.571 21.4777 13.5539 18.6663 12.5742 17.4219C12.5582 17.4015 12.5419 17.3808 12.5255 17.3599C12.0736 16.7841 11.793 16.3168 10.8513 16.3168Z" fill="url(#paint38_radial_20020_1098)"/>
<path fill-rule="evenodd" clip-rule="evenodd" d="M19.7299 2.36256C19.7475 2.11466 19.9628 1.92798 20.2107 1.94561C21.1825 2.01472 22.4414 2.45057 23.4512 3.37973C24.475 4.32172 25.2256 5.75591 25.1755 7.76896C25.1693 8.01741 24.9629 8.2138 24.7145 8.20762C24.466 8.20143 24.2696 7.99501 24.2758 7.74656C24.3194 5.99398 23.6755 4.80903 22.8419 4.04204C21.9943 3.26221 20.9328 2.89924 20.1469 2.84334C19.899 2.82572 19.7123 2.61046 19.7299 2.36256Z" fill="#1B99E7"/>
<path fill-rule="evenodd" clip-rule="evenodd" d="M19.7299 2.36256C19.7475 2.11466 19.9628 1.92798 20.2107 1.94561C21.1825 2.01472 22.4414 2.45057 23.4512 3.37973C24.475 4.32172 25.2256 5.75591 25.1755 7.76896C25.1693 8.01741 24.9629 8.2138 24.7145 8.20762C24.466 8.20143 24.2696 7.99501 24.2758 7.74656C24.3194 5.99398 23.6755 4.80903 22.8419 4.04204C21.9943 3.26221 20.9328 2.89924 20.1469 2.84334C19.899 2.82572 19.7123 2.61046 19.7299 2.36256Z" fill="url(#paint39_radial_20020_1098)"/>
<path fill-rule="evenodd" clip-rule="evenodd" d="M19.7299 2.36256C19.7475 2.11466 19.9628 1.92798 20.2107 1.94561C21.1825 2.01472 22.4414 2.45057 23.4512 3.37973C24.475 4.32172 25.2256 5.75591 25.1755 7.76896C25.1693 8.01741 24.9629 8.2138 24.7145 8.20762C24.466 8.20143 24.2696 7.99501 24.2758 7.74656C24.3194 5.99398 23.6755 4.80903 22.8419 4.04204C21.9943 3.26221 20.9328 2.89924 20.1469 2.84334C19.899 2.82572 19.7123 2.61046 19.7299 2.36256Z" fill="url(#paint40_radial_20020_1098)"/>
<path fill-rule="evenodd" clip-rule="evenodd" d="M17.5571 3.95765C17.5655 3.70926 17.7736 3.51465 18.0219 3.52296C18.9969 3.55561 20.3511 3.98607 21.4525 4.94885C22.5706 5.92627 23.4178 7.44439 23.3551 9.60683C23.3479 9.85525 23.1407 10.0508 22.8923 10.0436C22.6439 10.0364 22.4483 9.8292 22.4555 9.58078C22.5101 7.69635 21.783 6.43322 20.8601 5.62645C19.9205 4.80505 18.7669 4.44841 17.9918 4.42246C17.7434 4.41414 17.5488 4.20604 17.5571 3.95765Z" fill="#1B99E7"/>
<path fill-rule="evenodd" clip-rule="evenodd" d="M17.5571 3.95765C17.5655 3.70926 17.7736 3.51465 18.0219 3.52296C18.9969 3.55561 20.3511 3.98607 21.4525 4.94885C22.5706 5.92627 23.4178 7.44439 23.3551 9.60683C23.3479 9.85525 23.1407 10.0508 22.8923 10.0436C22.6439 10.0364 22.4483 9.8292 22.4555 9.58078C22.5101 7.69635 21.783 6.43322 20.8601 5.62645C19.9205 4.80505 18.7669 4.44841 17.9918 4.42246C17.7434 4.41414 17.5488 4.20604 17.5571 3.95765Z" fill="url(#paint41_radial_20020_1098)"/>
<path fill-rule="evenodd" clip-rule="evenodd" d="M17.5571 3.95765C17.5655 3.70926 17.7736 3.51465 18.0219 3.52296C18.9969 3.55561 20.3511 3.98607 21.4525 4.94885C22.5706 5.92627 23.4178 7.44439 23.3551 9.60683C23.3479 9.85525 23.1407 10.0508 22.8923 10.0436C22.6439 10.0364 22.4483 9.8292 22.4555 9.58078C22.5101 7.69635 21.783 6.43322 20.8601 5.62645C19.9205 4.80505 18.7669 4.44841 17.9918 4.42246C17.7434 4.41414 17.5488 4.20604 17.5571 3.95765Z" fill="url(#paint42_radial_20020_1098)"/>
<path fill-rule="evenodd" clip-rule="evenodd" d="M3.78139 15.5123C4.02912 15.5323 4.21373 15.7494 4.19374 15.9971C4.10166 17.138 4.3782 18.335 5.06869 19.3078C5.75391 20.2732 6.86434 21.0433 8.49461 21.3138C8.73979 21.3545 8.90557 21.5862 8.86489 21.8314C8.82421 22.0766 8.59248 22.2424 8.3473 22.2017C6.49321 21.8941 5.16615 21.0001 4.33477 19.8288C3.50866 18.6649 3.1895 17.2525 3.29665 15.9247C3.31665 15.677 3.53367 15.4924 3.78139 15.5123Z" fill="url(#paint43_linear_20020_1098)"/>
<path fill-rule="evenodd" clip-rule="evenodd" d="M3.78139 15.5123C4.02912 15.5323 4.21373 15.7494 4.19374 15.9971C4.10166 17.138 4.3782 18.335 5.06869 19.3078C5.75391 20.2732 6.86434 21.0433 8.49461 21.3138C8.73979 21.3545 8.90557 21.5862 8.86489 21.8314C8.82421 22.0766 8.59248 22.2424 8.3473 22.2017C6.49321 21.8941 5.16615 21.0001 4.33477 19.8288C3.50866 18.6649 3.1895 17.2525 3.29665 15.9247C3.31665 15.677 3.53367 15.4924 3.78139 15.5123Z" fill="url(#paint44_radial_20020_1098)"/>
<path fill-rule="evenodd" clip-rule="evenodd" d="M1.87747 17.3801C2.12489 17.4036 2.30641 17.6232 2.28292 17.8706C2.07019 20.1111 3.54507 22.4005 6.35616 22.7806C6.60245 22.8139 6.77511 23.0405 6.74181 23.2868C6.70851 23.5331 6.48186 23.7058 6.23557 23.6725C2.92163 23.2244 1.13088 20.4825 1.38695 17.7855C1.41044 17.5381 1.63005 17.3566 1.87747 17.3801Z" fill="url(#paint45_linear_20020_1098)"/>
<path fill-rule="evenodd" clip-rule="evenodd" d="M1.87747 17.3801C2.12489 17.4036 2.30641 17.6232 2.28292 17.8706C2.07019 20.1111 3.54507 22.4005 6.35616 22.7806C6.60245 22.8139 6.77511 23.0405 6.74181 23.2868C6.70851 23.5331 6.48186 23.7058 6.23557 23.6725C2.92163 23.2244 1.13088 20.4825 1.38695 17.7855C1.41044 17.5381 1.63005 17.3566 1.87747 17.3801Z" fill="url(#paint46_radial_20020_1098)"/>
<defs>
<radialGradient id="paint0_radial_20020_1098" cx="0" cy="0" r="1" gradientUnits="userSpaceOnUse" gradientTransform="translate(23.6494 14.4955) rotate(97.9815) scale(17.1541 19.1501)">
<stop offset="0.777042" stop-color="#B57393" stop-opacity="0"/>
<stop offset="1" stop-color="#9B637E"/>
</radialGradient>
<linearGradient id="paint1_linear_20020_1098" x1="14.7537" y1="22.6275" x2="11.3557" y2="25.9206" gradientUnits="userSpaceOnUse">
<stop stop-color="#B57393" stop-opacity="0"/>
<stop offset="1" stop-color="#915A75"/>
</linearGradient>
<radialGradient id="paint2_radial_20020_1098" cx="0" cy="0" r="1" gradientUnits="userSpaceOnUse" gradientTransform="translate(27.6606 21.2802) rotate(80.5377) scale(8.26193 6.08363)">
<stop stop-color="#FECAA9"/>
<stop offset="1" stop-color="#FFCDAB" stop-opacity="0"/>
</radialGradient>
<radialGradient id="paint3_radial_20020_1098" cx="0" cy="0" r="1" gradientUnits="userSpaceOnUse" gradientTransform="translate(24.0793 16.4563) rotate(89.3772) scale(4.06633 2.99422)">
<stop stop-color="#E1AC90"/>
<stop offset="1" stop-color="#E6B195" stop-opacity="0"/>
</radialGradient>
<radialGradient id="paint4_radial_20020_1098" cx="0" cy="0" r="1" gradientUnits="userSpaceOnUse" gradientTransform="translate(12.883 19.6047) rotate(53.455) scale(4.10425 1.34266)">
<stop offset="0.229794" stop-color="#F5C2A5"/>
<stop offset="1" stop-color="#F5C3A6" stop-opacity="0"/>
</radialGradient>
<radialGradient id="paint5_radial_20020_1098" cx="0" cy="0" r="1" gradientUnits="userSpaceOnUse" gradientTransform="translate(11.8975 17.9754) rotate(51.4993) scale(1.34794)">
<stop stop-color="#EEBD9E"/>
<stop offset="1" stop-color="#EEBD9E" stop-opacity="0"/>
</radialGradient>
<radialGradient id="paint6_radial_20020_1098" cx="0" cy="0" r="1" gradientUnits="userSpaceOnUse" gradientTransform="translate(27.6325 15.2949) rotate(43.9256) scale(9.20518 8.82493)">
<stop offset="0.217813" stop-color="#E3A994"/>
<stop offset="0.41692" stop-color="#E3A994" stop-opacity="0"/>
</radialGradient>
<radialGradient id="paint7_radial_20020_1098" cx="0" cy="0" r="1" gradientUnits="userSpaceOnUse" gradientTransform="translate(26.0726 13.5386) rotate(9.20836) scale(2.08814 4.61065)">
<stop offset="0.0622247" stop-color="#D09885"/>
<stop offset="1" stop-color="#D29986" stop-opacity="0"/>
</radialGradient>
<radialGradient id="paint8_radial_20020_1098" cx="0" cy="0" r="1" gradientUnits="userSpaceOnUse" gradientTransform="translate(28.9846 14.1444) rotate(92.8624) scale(4.92776 2.16913)">
<stop stop-color="#ECBA99"/>
<stop offset="1" stop-color="#ECBA99" stop-opacity="0"/>
</radialGradient>
<radialGradient id="paint9_radial_20020_1098" cx="0" cy="0" r="1" gradientUnits="userSpaceOnUse" gradientTransform="translate(24.7502 12.2367) rotate(9.6599) scale(1.81273 5.19118)">
<stop offset="0.0622247" stop-color="#BC8367"/>
<stop offset="1" stop-color="#BB8469" stop-opacity="0"/>
</radialGradient>
<radialGradient id="paint10_radial_20020_1098" cx="0" cy="0" r="1" gradientUnits="userSpaceOnUse" gradientTransform="translate(21.7492 24.1029) rotate(-0.184517) scale(11.2706)">
<stop offset="0.26965" stop-color="#E4AB94"/>
<stop offset="0.505447" stop-color="#E5AC94" stop-opacity="0"/>
</radialGradient>
<radialGradient id="paint11_radial_20020_1098" cx="0" cy="0" r="1" gradientUnits="userSpaceOnUse" gradientTransform="translate(28.1956 11.124) rotate(130.326) scale(1.79317 1.54273)">
<stop stop-color="#FBCCA8"/>
<stop offset="1" stop-color="#FCCCA8" stop-opacity="0"/>
</radialGradient>
<radialGradient id="paint12_radial_20020_1098" cx="0" cy="0" r="1" gradientUnits="userSpaceOnUse" gradientTransform="translate(23.2219 11.2274) rotate(156.184) scale(4.5159 9.48794)">
<stop offset="0.566977" stop-color="#CD8F7C" stop-opacity="0"/>
<stop offset="1" stop-color="#CD8F7C"/>
</radialGradient>
<radialGradient id="paint13_radial_20020_1098" cx="0" cy="0" r="1" gradientUnits="userSpaceOnUse" gradientTransform="translate(23.2219 11.2274) rotate(154.475) scale(5.00288 12.5877)">
<stop offset="0.6788" stop-color="#D49884" stop-opacity="0"/>
<stop offset="1" stop-color="#843E2C"/>
</radialGradient>
<radialGradient id="paint14_radial_20020_1098" cx="0" cy="0" r="1" gradientUnits="userSpaceOnUse" gradientTransform="translate(24.5078 14.8595) rotate(-127.591) scale(3.72686 0.797122)">
<stop stop-color="#B17F61"/>
<stop offset="1" stop-color="#B17F61" stop-opacity="0"/>
</radialGradient>
<radialGradient id="paint15_radial_20020_1098" cx="0" cy="0" r="1" gradientUnits="userSpaceOnUse" gradientTransform="translate(19.6024 5.86842) rotate(84.4626) scale(2.29203 2.86609)">
<stop stop-color="#C79A79"/>
<stop offset="1" stop-color="#C79A79" stop-opacity="0"/>
</radialGradient>
<radialGradient id="paint16_radial_20020_1098" cx="0" cy="0" r="1" gradientUnits="userSpaceOnUse" gradientTransform="translate(21.9059 11.5723) rotate(67.7035) scale(6.85802 1.43993)">
<stop stop-color="#FFCDA9"/>
<stop offset="0.899756" stop-color="#FDCBA9" stop-opacity="0"/>
</radialGradient>
<radialGradient id="paint17_radial_20020_1098" cx="0" cy="0" r="1" gradientUnits="userSpaceOnUse" gradientTransform="translate(22.2977 8.92226) rotate(75.5246) scale(4.16201 2.55906)">
<stop offset="0.34375" stop-color="#FFCEA8"/>
<stop offset="0.899756" stop-color="#FFCEA8" stop-opacity="0"/>
</radialGradient>
<linearGradient id="paint18_linear_20020_1098" x1="20.5466" y1="16.6674" x2="20.1401" y2="14.5625" gradientUnits="userSpaceOnUse">
<stop stop-color="#E4AB94"/>
<stop offset="1" stop-color="#E4AB94" stop-opacity="0"/>
</linearGradient>
<linearGradient id="paint19_linear_20020_1098" x1="21.6381" y1="16.1774" x2="21.891" y2="14.3226" gradientUnits="userSpaceOnUse">
<stop offset="0.226927" stop-color="#E4AC94"/>
<stop offset="1" stop-color="#DBA08B" stop-opacity="0"/>
</linearGradient>
<linearGradient id="paint20_linear_20020_1098" x1="24.3074" y1="15.581" x2="23.0676" y2="14.6285" gradientUnits="userSpaceOnUse">
<stop offset="0.226927" stop-color="#C18776"/>
<stop offset="1" stop-color="#CE967E" stop-opacity="0"/>
</linearGradient>
<radialGradient id="paint21_radial_20020_1098" cx="0" cy="0" r="1" gradientUnits="userSpaceOnUse" gradientTransform="translate(22.7574 16.2556) rotate(40.2258) scale(2.09006 2.23263)">
<stop offset="0.128" stop-color="#E2AC92"/>
<stop offset="1" stop-color="#E1AB91" stop-opacity="0"/>
</radialGradient>
<radialGradient id="paint22_radial_20020_1098" cx="0" cy="0" r="1" gradientUnits="userSpaceOnUse" gradientTransform="translate(15.9688 15.6093) rotate(146.452) scale(3.50589 9.38314)">
<stop offset="0.425307" stop-color="#CF927E" stop-opacity="0"/>
<stop offset="1" stop-color="#CF927E"/>
</radialGradient>
<radialGradient id="paint23_radial_20020_1098" cx="0" cy="0" r="1" gradientUnits="userSpaceOnUse" gradientTransform="translate(15.9688 15.6093) rotate(147.829) scale(4.57788 12.2522)">
<stop offset="0.624797" stop-color="#C7865E" stop-opacity="0"/>
<stop offset="1" stop-color="#C7865E"/>
</radialGradient>
<radialGradient id="paint24_radial_20020_1098" cx="0" cy="0" r="1" gradientUnits="userSpaceOnUse" gradientTransform="translate(12.6649 17.4933) rotate(-32.358) scale(3.71457 23.5117)">
<stop offset="0.692182" stop-color="#C78764" stop-opacity="0"/>
<stop offset="1" stop-color="#843E2C"/>
</radialGradient>
<linearGradient id="paint25_linear_20020_1098" x1="16.8125" y1="19.3593" x2="15.0938" y2="18.4531" gradientUnits="userSpaceOnUse">
<stop stop-color="#E4AB94"/>
<stop offset="1" stop-color="#E4AB94" stop-opacity="0"/>
</linearGradient>
<radialGradient id="paint26_radial_20020_1098" cx="0" cy="0" r="1" gradientUnits="userSpaceOnUse" gradientTransform="translate(12.7406 11.2181) rotate(83.1268) scale(2.30263 2.71948)">
<stop stop-color="#CC9D7A"/>
<stop offset="1" stop-color="#CC9D7A" stop-opacity="0"/>
</radialGradient>
<radialGradient id="paint27_radial_20020_1098" cx="0" cy="0" r="1" gradientUnits="userSpaceOnUse" gradientTransform="translate(14.3316 15.3068) rotate(61.7509) scale(6.38877 1.15535)">
<stop stop-color="#F2C1A5"/>
<stop offset="1" stop-color="#F2C1A5" stop-opacity="0"/>
</radialGradient>
<linearGradient id="paint28_linear_20020_1098" x1="16.0006" y1="19.0455" x2="17.3555" y2="19.6129" gradientUnits="userSpaceOnUse">
<stop stop-color="#E4AB94" stop-opacity="0"/>
<stop offset="0.767394" stop-color="#E4AB94"/>
</linearGradient>
<radialGradient id="paint29_radial_20020_1098" cx="0" cy="0" r="1" gradientUnits="userSpaceOnUse" gradientTransform="translate(13.0664 19.2801) rotate(56.6503) scale(4.3943 1.46962)">
<stop offset="0.0997061" stop-color="#843E2C"/>
<stop offset="1" stop-color="#843E2C" stop-opacity="0"/>
</radialGradient>
<radialGradient id="paint30_radial_20020_1098" cx="0" cy="0" r="1" gradientUnits="userSpaceOnUse" gradientTransform="translate(20.46 12.494) rotate(157.196) scale(5.56007 13.1606)">
<stop offset="0.504869" stop-color="#D0927D" stop-opacity="0"/>
<stop offset="1" stop-color="#C28570"/>
</radialGradient>
<radialGradient id="paint31_radial_20020_1098" cx="0" cy="0" r="1" gradientUnits="userSpaceOnUse" gradientTransform="translate(17.3554 11.1157) rotate(66.342) scale(9.90916 2.39673)">
<stop offset="0.239583" stop-color="#F8C4AA"/>
<stop offset="1" stop-color="#EAB89F" stop-opacity="0"/>
</radialGradient>
<radialGradient id="paint32_radial_20020_1098" cx="0" cy="0" r="1" gradientUnits="userSpaceOnUse" gradientTransform="translate(18.3825 11.6975) rotate(-24.6559) scale(1.67677 8.53648)">
<stop stop-color="#843E2C"/>
<stop offset="1" stop-color="#F1BCA3" stop-opacity="0"/>
</radialGradient>
<linearGradient id="paint33_linear_20020_1098" x1="17.6562" y1="17.9687" x2="16.7968" y2="15.3281" gradientUnits="userSpaceOnUse">
<stop stop-color="#E4AB94"/>
<stop offset="1" stop-color="#E4AB94" stop-opacity="0"/>
</linearGradient>
<radialGradient id="paint34_radial_20020_1098" cx="0" cy="0" r="1" gradientUnits="userSpaceOnUse" gradientTransform="translate(15.4461 6.68083) rotate(83.5812) scale(2.51577 2.77818)">
<stop stop-color="#CA9F7E"/>
<stop offset="1" stop-color="#CA9F7E" stop-opacity="0"/>
</radialGradient>
<radialGradient id="paint35_radial_20020_1098" cx="0" cy="0" r="1" gradientUnits="userSpaceOnUse" gradientTransform="translate(14.8145 14.3422) rotate(-22.9962) scale(1.76501 7.53237)">
<stop offset="0.092806" stop-color="#843E2C"/>
<stop offset="1" stop-color="#E8B19A" stop-opacity="0"/>
</radialGradient>
<linearGradient id="paint36_linear_20020_1098" x1="18.9583" y1="17.5913" x2="17.7265" y2="16.2871" gradientUnits="userSpaceOnUse">
<stop offset="0.357193" stop-color="#E4AB94"/>
<stop offset="0.6405" stop-color="#E4AB94" stop-opacity="0"/>
</linearGradient>
<radialGradient id="paint37_radial_20020_1098" cx="0" cy="0" r="1" gradientUnits="userSpaceOnUse" gradientTransform="translate(14.3406 18.1985) rotate(131.959) scale(1.77124 6.0055)">
<stop stop-color="#843E2C"/>
<stop offset="1" stop-color="#843E2C" stop-opacity="0"/>
</radialGradient>
<radialGradient id="paint38_radial_20020_1098" cx="0" cy="0" r="1" gradientUnits="userSpaceOnUse" gradientTransform="translate(11.12 15.872) rotate(82.3929) scale(2.125 2.77166)">
<stop stop-color="#CA9A78"/>
<stop offset="1" stop-color="#CA9A78" stop-opacity="0"/>
</radialGradient>
<radialGradient id="paint39_radial_20020_1098" cx="0" cy="0" r="1" gradientUnits="userSpaceOnUse" gradientTransform="translate(22.2102 5.23432) rotate(-44.7092) scale(2.17659 5.56896)">
<stop stop-color="#16579C"/>
<stop offset="0.743739" stop-color="#16579C" stop-opacity="0"/>
</radialGradient>
<radialGradient id="paint40_radial_20020_1098" cx="0" cy="0" r="1" gradientUnits="userSpaceOnUse" gradientTransform="translate(21.4707 6.06832) rotate(49.9384) scale(4.26914 2.87957)">
<stop offset="0.667349" stop-color="#154F8C"/>
<stop offset="1" stop-color="#154F8C" stop-opacity="0"/>
</radialGradient>
<radialGradient id="paint41_radial_20020_1098" cx="0" cy="0" r="1" gradientUnits="userSpaceOnUse" gradientTransform="translate(20.1956 6.94906) rotate(-43.9169) scale(2.31376 5.91598)">
<stop stop-color="#16579C"/>
<stop offset="0.861756" stop-color="#16579C" stop-opacity="0"/>
</radialGradient>
<radialGradient id="paint42_radial_20020_1098" cx="0" cy="0" r="1" gradientUnits="userSpaceOnUse" gradientTransform="translate(19.3278 7.86265) rotate(48.1522) scale(4.54407 3.07549)">
<stop offset="0.75121" stop-color="#154F8C"/>
<stop offset="1" stop-color="#154F8C" stop-opacity="0"/>
</radialGradient>
<linearGradient id="paint43_linear_20020_1098" x1="4.83517" y1="15.9609" x2="8.02267" y2="22.5937" gradientUnits="userSpaceOnUse">
<stop stop-color="#1679C5"/>
<stop offset="1" stop-color="#0D5194"/>
</linearGradient>
<radialGradient id="paint44_radial_20020_1098" cx="0" cy="0" r="1" gradientUnits="userSpaceOnUse" gradientTransform="translate(5.53829 18.5781) rotate(164.814) scale(2.26665 6.09358)">
<stop offset="0.705955" stop-color="#0E5196" stop-opacity="0"/>
<stop offset="1" stop-color="#0E5196"/>
</radialGradient>
<linearGradient id="paint45_linear_20020_1098" x1="2.87145" y1="17.8281" x2="6.61299" y2="25.9485" gradientUnits="userSpaceOnUse">
<stop offset="0.297941" stop-color="#1679C5"/>
<stop offset="1" stop-color="#0D5194"/>
</linearGradient>
<radialGradient id="paint46_radial_20020_1098" cx="0" cy="0" r="1" gradientUnits="userSpaceOnUse" gradientTransform="translate(3.54293 20.2654) rotate(165.175) scale(2.16099 5.68433)">
<stop offset="0.705955" stop-color="#0E5196" stop-opacity="0"/>
<stop offset="1" stop-color="#0E5196"/>
</radialGradient>
</defs>
</svg>
